<svg enable-background="new 0 0 512 512" viewBox="0 0 512 512" xmlns="http://www.w3.org/2000/svg" xmlns:xlink="http://www.w3.org/1999/xlink"><linearGradient id="a" gradientTransform="matrix(1 0 0 -1 0 514)" gradientUnits="userSpaceOnUse" x1="0" x2="512" y1="258" y2="258"><stop offset="0" stop-color="#00f2fe"/><stop offset=".021" stop-color="#03effe"/><stop offset=".293" stop-color="#24d2fe"/><stop offset=".554" stop-color="#3cbdfe"/><stop offset=".796" stop-color="#4ab0fe"/><stop offset="1" stop-color="#4facfe"/></linearGradient><path d="m256 379c-68.925 0-125-56.075-125-125s56.075-125 125-125 125 56.075 125 125-56.075 125-125 125zm0-210c-46.869 0-85 38.131-85 85s38.131 85 85 85 85-38.131 85-85-38.131-85-85-85zm132.461 306.107c9.448-5.723 12.467-18.021 6.745-27.468-5.723-9.448-18.022-12.467-27.468-6.745-33.595 20.35-72.233 31.106-111.738 31.106-119.103 0-216-96.897-216-216s96.897-216 216-216 216 96.897 216 216c0 42.589-12.665 84.044-36.626 119.885-6.139 9.183-3.672 21.603 5.511 27.742 9.183 6.14 21.604 3.672 27.742-5.511 28.374-42.442 43.373-91.585 43.373-142.116 0-68.38-26.629-132.667-74.98-181.02-48.353-48.351-112.64-74.98-181.02-74.98s-132.667 26.629-181.02 74.98c-48.351 48.353-74.98 112.64-74.98 181.02s26.629 132.667 74.98 181.02c48.353 48.351 112.64 74.98 181.02 74.98 46.813 0 92.617-12.757 132.461-36.893z" fill="url(#a)"/></svg>