<svg enable-background="new 0 0 512 512" viewBox="0 0 512 512" xmlns="http://www.w3.org/2000/svg"><circle cx="256" cy="256" fill="#ff0037" r="256"/><path d="m512 256c0-14.383-1.206-28.482-3.485-42.218l-118.15-118.15-289.608 124.09v192.24l92.208 92.208c20.166 5.107 41.282 7.83 63.035 7.83 141.385 0 256-114.615 256-256z" fill="#d30f0f"/><path d="m100.76 219.72h310.48v192.24h-310.48z" fill="#414952"/><path d="m255.76 219.72h155.48v192.24h-155.48z" fill="#23272b"/><path d="m100.76 219.72h310.48v53.57h-310.48z" fill="#fff"/><path d="m255.76 219.72h155.48v53.57h-155.48z" fill="#f7f7f7"/><path d="m259 273.295h-28.667l22.667-53.573h28.667z" fill="#707789"/><path d="m281.667 219.722h-25.905v53.573h3.238z" fill="#636978"/><path d="m194.212 273.295h-28.666l22.666-53.573h28.667z" fill="#707789"/><path d="m129.424 273.295h-28.666l22.666-53.573h28.667z" fill="#707789"/><path d="m323.788 273.295h-28.667l22.667-53.573h28.666z" fill="#636978"/><path d="m388.576 273.295h-28.667l22.667-53.573h28.666z" fill="#636978"/><path d="m90.321 130.899h310.491v53.572h-310.491z" fill="#fff" transform="matrix(.9728 -.2318 .2318 .9728 -29.8623 61.2149)"/><path d="m390.365 95.632-134.603 32.078v55.072l147.022-35.037z" fill="#f7f7f7"/><path d="m254.689 183.037-27.885 6.646 9.63-57.367 27.886-6.646z" fill="#707789"/><path d="m255.762 127.71v48.938l8.558-50.978z" fill="#636978"/><path d="m191.667 198.056-27.886 6.646 9.63-57.367 27.886-6.646z" fill="#707789"/><path d="m128.644 213.076-27.886 6.645 9.631-57.367 27.885-6.646z" fill="#707789"/><g fill="#636978"><path d="m317.712 168.018-27.886 6.646 9.631-57.367 27.886-6.646z"/><path d="m380.735 152.999-27.886 6.646 9.631-57.367 27.885-6.646z"/></g></svg>