<svg enable-background="new 0 0 511.999 511.999" viewBox="0 0 511.999 511.999" xmlns="http://www.w3.org/2000/svg"><g fill="#03aa6f"><path d="m441.374 79.519-26.485 17.656-44.141-8.828-26.485-8.828-35.313 8.828-26.485-8.828 17.656-35.313h35.313l34.607-17.303c26.689 13.198 50.834 31.013 71.333 52.616z"/><path d="m238.325 44.206-8.828 26.485-26.485 8.828-26.485 44.141-44.141 26.485-61.797 8.828v26.485l17.656 17.656v35.313l-26.483-17.657-26.485-17.656-15.361-46.171c26.44-63.008 76.982-112.817 140.368-138.339l25.072 16.774z"/><path d="m255.982 291.395-8.828 44.141-35.313 35.313v26.485l-35.313 26.484v44.141l-26.484-8.828-17.657-44.141v-88.282l-44.141-8.828-17.656-35.313v-26.485l17.656-17.656 26.485-26.485 17.656 35.313h61.797l26.485 44.141z"/><path d="m479.335 130.987c48.193 85.978 42.702 191.996-14.125 272.526l-23.836-23.836v-35.313l-17.656-35.313-17.656-35.313v-35.313l-26.485-17.656-35.313 8.828-61.797-26.485-8.828-61.797 26.485-26.485h52.969l17.656 26.485 52.969 8.828 52.969-17.656z"/></g><path d="m308.951 88.347 35.313-8.828 26.485 8.828 44.141 8.828 26.485-17.656c14.787 15.476 27.544 32.77 37.961 51.468l-2.648 1.501-52.969 17.656-52.969-8.828-17.656-26.485h-52.969l-26.485 26.485 8.828 61.797 61.797 26.485 35.313-8.828 26.485 17.656v35.313l17.656 35.313 17.656 35.313v35.313l23.836 23.836c-81.528 115.526-241.275 143.079-356.792 61.55-98.108-69.249-134.913-197.373-88.503-308.122l15.361 46.171 26.485 17.656 26.485 17.656-17.657 17.657v26.485l17.656 35.313 44.141 8.828v88.282l17.656 44.141 26.485 8.828v-44.141l35.313-26.485v-26.485l35.313-35.313 8.828-44.141h-35.313l-26.485-44.141h-61.797l-17.656-35.313-26.485 26.485v-35.313l-17.656-17.655v-26.485l61.797-8.828 44.141-26.485 26.485-44.141 26.485-8.828 8.828-26.485-52.969-8.828-25.072-16.774c67.889-27.341 144.235-24.322 209.758 8.299l-34.607 17.303h-35.313l-17.656 35.313z" fill="#86daf1"/></svg>